<svg version="1.1" viewBox="0.0 0.0 524.8740157480315 119.55643044619423" fill="none" stroke="none" stroke-linecap="square" stroke-miterlimit="10" xmlns:xlink="http://www.w3.org/1999/xlink" xmlns="http://www.w3.org/2000/svg"><clipPath id="p.0"><path d="m0 0l524.874 0l0 119.55643l-524.874 0l0 -119.55643z" clip-rule="nonzero"/></clipPath><g clip-path="url(#p.0)"><path fill="#000000" fill-opacity="0.0" d="m0 0l524.874 0l0 119.55643l-524.874 0z" fill-rule="evenodd"/><g filter="url(#shadowFilter-p.1)"><use xlink:href="#p.1" transform="matrix(1.0 0.0 0.0 1.0 0.0 3.0)"/></g><defs><filter id="shadowFilter-p.1" filterUnits="userSpaceOnUse"><feGaussianBlur in="SourceAlpha" stdDeviation="2.0" result="blur"/><feComponentTransfer in="blur" color-interpolation-filters="sRGB"><feFuncR type="linear" slope="0" intercept="0.0"/><feFuncG type="linear" slope="0" intercept="0.0"/><feFuncB type="linear" slope="0" intercept="0.0"/><feFuncA type="linear" slope="0.5" intercept="0"/></feComponentTransfer></filter></defs><g id="p.1"><path fill="#000000" fill-opacity="0.0" d="m0 0l534.2677 0l0 114.48819l-534.2677 0z" fill-rule="evenodd"/><path fill="#666666" d="m69.0 39.31562l0 11.28125q0 2.40625 -0.796875 4.078125q3.109375 3.28125 3.109375 7.609375l0 12.390625q0 4.640625 -3.28125 7.890625q-3.265625 3.234375 -7.90625 3.234375l-46.40625 0l0 -57.59375l44.15625 0q4.5625 0 7.84375 3.234375q3.28125 3.234375 3.28125 7.875zm-11.125 -0.5625l-33.03125 0q-0.5625 0 -0.5625 0.5625l0 11.28125q0 0.5625 0.5625 0.5625l33.03125 0q0.484375 0 0.484375 -0.5625l0 -11.28125q0 -0.5625 -0.484375 -0.5625zm2.8125 35.921875l0 -12.390625q0 -0.484375 -0.5625 -0.484375l-35.28125 0q-0.5625 0 -0.5625 0.484375l0 12.390625q0 0.5625 0.5625 0.5625l35.28125 0q0.5625 0 0.5625 -0.5625zm30.075562 -35.28125l25.75 0l0 10.484375l-25.75 0q-0.5625 0 -0.5625 0.5625l0 35.359375l-10.484375 0l0 -35.359375q0 -4.5625 3.234375 -7.796875q3.25 -3.25 7.8125 -3.25zm67.27121 0q4.5625 0 7.796875 3.25q3.25 3.234375 3.25 7.796875l0 35.359375l-36.078125 0q-4.5625 0 -7.8125 -3.234375q-3.234375 -3.25 -3.234375 -7.8125l0 -17.4375l36.640625 0l0 -6.875q0 -0.5625 -0.5625 -0.5625l-36.078125 0l0 -10.484375l36.078125 0zm0.5625 35.921875l0 -7.4375l-26.15625 0l0 6.875q0 0.5625 0.5625 0.5625l25.59375 0zm18.879318 10.484375l0 -46.40625l10.484375 0l0 46.40625l-10.484375 0zm0 -61.59375l10.484375 0l0 10.546875l-10.484375 0l0 -10.546875zm54.889984 15.1875q4.546875 0 7.78125 3.25q3.25 3.234375 3.25 7.796875l0 35.359375l-10.484375 0l0 -35.359375q0 -0.5625 -0.546875 -0.5625l-25.046875 0q-0.5625 0 -0.5625 0.5625l0 35.359375l-10.484375 0l0 -46.40625l36.09375 0z" fill-rule="nonzero"/><path fill="#990000" d="m309.23352 37.31562l0 13.203125q0 3.359375 -1.59375 5.765625q1.59375 2.390625 1.59375 5.75l0 12.71875q0 4.5625 -3.234375 7.8125q-3.234375 3.234375 -7.796875 3.234375l-34.96875 0q-4.546875 0 -7.796875 -3.234375q-3.234375 -3.25 -3.234375 -7.8125l0 -12.71875q0 -3.1875 1.59375 -5.75q-1.59375 -2.5625 -1.59375 -5.765625l0 -11.28125q0 -4.5625 3.234375 -7.796875q3.25 -3.234375 7.796875 -3.234375l34.96875 0q4.078125 0 7.234375 2.59375q3.15625 2.59375 3.796875 6.515625zm-10.46875 37.4375l0 -12.71875q0 -0.46875 -0.5625 -0.46875l-34.96875 0q-0.546875 0 -0.546875 0.46875l0 12.71875q0 0.5625 0.546875 0.5625l34.96875 0q0.5625 0 0.5625 -0.5625zm0 -23.4375l0 -12.0q0 -0.5625 -0.5625 -0.5625l-34.96875 0q-0.546875 0 -0.546875 0.5625l0 12.0q0 0.5625 0.546875 0.5625l34.96875 0q0.5625 0 0.5625 -0.5625zm77.18869 -14.0l0 13.203125q0 3.359375 -1.59375 5.765625q1.59375 2.390625 1.59375 5.75l0 12.71875q0 4.5625 -3.234375 7.8125q-3.234375 3.234375 -7.796875 3.234375l-34.96875 0q-4.546875 0 -7.796875 -3.234375q-3.234375 -3.25 -3.234375 -7.8125l0 -12.71875q0 -3.1875 1.59375 -5.75q-1.59375 -2.5625 -1.59375 -5.765625l0 -11.28125q0 -4.5625 3.234375 -7.796875q3.25 -3.234375 7.796875 -3.234375l34.96875 0q4.078125 0 7.234375 2.59375q3.15625 2.59375 3.796875 6.515625zm-10.46875 37.4375l0 -12.71875q0 -0.46875 -0.5625 -0.46875l-34.96875 0q-0.546875 0 -0.546875 0.46875l0 12.71875q0 0.5625 0.546875 0.5625l34.96875 0q0.5625 0 0.5625 -0.5625zm0 -23.4375l0 -12.0q0 -0.5625 -0.5625 -0.5625l-34.96875 0q-0.546875 0 -0.546875 0.5625l0 12.0q0 0.5625 0.546875 0.5625l34.96875 0q0.5625 0 0.5625 -0.5625zm77.18869 -14.0l0 13.203125q0 3.359375 -1.59375 5.765625q1.59375 2.390625 1.59375 5.75l0 12.71875q0 4.5625 -3.234375 7.8125q-3.234375 3.234375 -7.796875 3.234375l-34.96875 0q-4.546875 0 -7.796875 -3.234375q-3.234375 -3.25 -3.234375 -7.8125l0 -12.71875q0 -3.1875 1.59375 -5.75q-1.59375 -2.5625 -1.59375 -5.765625l0 -11.28125q0 -4.5625 3.234375 -7.796875q3.25 -3.234375 7.796875 -3.234375l34.96875 0q4.078125 0 7.234375 2.59375q3.15625 2.59375 3.796875 6.515625zm-10.46875 37.4375l0 -12.71875q0 -0.46875 -0.5625 -0.46875l-34.96875 0q-0.546875 0 -0.546875 0.46875l0 12.71875q0 0.5625 0.546875 0.5625l34.96875 0q0.5625 0 0.5625 -0.5625zm0 -23.4375l0 -12.0q0 -0.5625 -0.5625 -0.5625l-34.96875 0q-0.546875 0 -0.546875 0.5625l0 12.0q0 0.5625 0.546875 0.5625l34.96875 0q0.5625 0 0.5625 -0.5625zm77.18869 -14.0l0 13.203125q0 3.359375 -1.59375 5.765625q1.59375 2.390625 1.59375 5.75l0 12.71875q0 4.5625 -3.234375 7.8125q-3.234375 3.234375 -7.796875 3.234375l-34.96875 0q-4.546875 0 -7.796875 -3.234375q-3.234375 -3.25 -3.234375 -7.8125l0 -12.71875q0 -3.1875 1.59375 -5.75q-1.59375 -2.5625 -1.59375 -5.765625l0 -11.28125q0 -4.5625 3.234375 -7.796875q3.25 -3.234375 7.796875 -3.234375l34.96875 0q4.078125 0 7.234375 2.59375q3.15625 2.59375 3.796875 6.515625zm-10.46875 37.4375l0 -12.71875q0 -0.46875 -0.5625 -0.46875l-34.96875 0q-0.546875 0 -0.546875 0.46875l0 12.71875q0 0.5625 0.546875 0.5625l34.96875 0q0.5625 0 0.5625 -0.5625zm0 -23.4375l0 -12.0q0 -0.5625 -0.5625 -0.5625l-34.96875 0q-0.546875 0 -0.546875 0.5625l0 12.0q0 0.5625 0.546875 0.5625l34.96875 0q0.5625 0 0.5625 -0.5625z" fill-rule="nonzero"/></g></g></svg>